<?xml version="1.0" encoding="UTF-8"?>
<svg xmlns="http://www.w3.org/2000/svg" xmlns:xlink="http://www.w3.org/1999/xlink" width="554pt" height="192pt" viewBox="0 0 554 192" version="1.1">
<g id="surface1">
<path style=" stroke:none;fill-rule:evenodd;fill:rgb(94.499207%,37.298584%,13.299561%);fill-opacity:1;" d="M 0.539063 191.335938 L 553.464844 191.335938 L 553.464844 0.664063 L 0.539063 0.664063 L 0.539063 191.335938 "/>
<path style=" stroke:none;fill-rule:evenodd;fill:rgb(100%,100%,100%);fill-opacity:1;" d="M 112.390625 89.375 L 112.390625 108.171875 C 112.390625 122.40625 124.308594 134.050781 138.871094 134.050781 L 143.464844 134.050781 C 158.027344 134.050781 169.941406 122.40625 169.941406 108.171875 L 169.941406 91.835938 C 169.941406 77.601563 158.027344 65.957031 143.464844 65.957031 L 138.871094 65.957031 C 135.339844 65.957031 131.972656 66.640625 128.886719 67.878906 Z M 136.476563 115.917969 L 145.859375 115.917969 C 149.734375 115.917969 152.902344 112.816406 152.902344 109.03125 L 152.902344 90.976563 C 152.902344 87.1875 149.734375 84.089844 145.859375 84.089844 L 136.476563 84.089844 C 132.601563 84.089844 129.433594 87.1875 129.433594 90.976563 L 129.433594 109.027344 C 129.433594 112.816406 132.601563 115.917969 136.476563 115.917969 "/>
<path style=" stroke:none;fill-rule:evenodd;fill:rgb(100%,100%,100%);fill-opacity:1;" d="M 89.972656 112.289063 C 85.097656 107.566406 80.238281 102.8125 75.375 98.058594 L 84.1875 98.058594 C 93.117188 98.058594 93.117188 82.917969 84.1875 82.917969 L 72.359375 82.917969 L 72.359375 133.382813 L 52.4375 133.382813 L 52.4375 67.949219 L 87.660156 67.949219 C 100.175781 67.949219 110.386719 77.929688 110.386719 90.164063 C 110.386719 101.632813 101.414063 111.121094 89.972656 112.289063 "/>
<path style=" stroke:none;fill-rule:evenodd;fill:rgb(100%,100%,100%);fill-opacity:1;" d="M 171.949219 89.375 L 171.949219 108.171875 C 171.949219 122.40625 183.863281 134.050781 198.425781 134.050781 L 203.023438 134.050781 C 217.585938 134.050781 229.496094 122.40625 229.496094 108.171875 L 229.5 91.835938 C 229.5 77.601563 217.585938 65.957031 203.023438 65.957031 L 198.425781 65.957031 C 194.898438 65.957031 191.527344 66.640625 188.445313 67.878906 Z M 196.03125 115.917969 L 205.414063 115.917969 C 209.289063 115.917969 212.460938 112.816406 212.460938 109.03125 L 212.460938 90.976563 C 212.460938 87.1875 209.289063 84.089844 205.414063 84.089844 L 196.03125 84.089844 C 192.160156 84.089844 188.988281 87.1875 188.988281 90.976563 L 188.988281 109.027344 C 188.988281 112.816406 192.160156 115.917969 196.03125 115.917969 "/>
<path style=" stroke:none;fill-rule:evenodd;fill:rgb(100%,100%,100%);fill-opacity:1;" d="M 345.617188 134.136719 L 345.617188 67.949219 L 381.929688 67.953125 C 394.390625 67.96875 404.550781 77.917969 404.570313 90.113281 C 404.578125 98.378906 399.921875 105.609375 392.988281 109.40625 L 408.984375 134.136719 L 391.902344 134.136719 L 368.550781 98.058594 L 377.15625 98.058594 C 386.65625 98.058594 387.035156 82.917969 376.539063 82.917969 L 365.539063 82.917969 L 365.539063 134.136719 L 345.617188 134.136719 "/>
<path style=" stroke:none;fill-rule:evenodd;fill:rgb(100%,100%,100%);fill-opacity:1;" d="M 409.746094 134.136719 L 434.476563 68.238281 L 455.304688 68.238281 L 481.066406 134.136719 L 459.726563 134.136719 L 453.960938 118.675781 L 447.988281 134.136719 L 434.972656 134.136719 L 441.164063 118.226563 L 453.796875 118.226563 L 443.066406 89.445313 L 425.621094 134.136719 L 409.746094 134.136719 "/>
<path style=" stroke:none;fill-rule:evenodd;fill:rgb(100%,100%,100%);fill-opacity:1;" d="M 272.285156 134.136719 L 297.011719 68.238281 L 317.847656 68.238281 L 343.609375 134.136719 L 322.261719 134.136719 L 316.5 118.675781 L 310.527344 134.136719 L 297.515625 134.136719 L 303.703125 118.226563 L 316.332031 118.226563 L 305.601563 89.445313 L 288.164063 134.136719 L 272.285156 134.136719 "/>
<path style=" stroke:none;fill-rule:evenodd;fill:rgb(100%,100%,100%);fill-opacity:1;" d="M 257.175781 68.277344 L 277.097656 68.277344 L 277.097656 47.925781 L 257.175781 47.925781 L 257.175781 68.277344 "/>
<path style=" stroke:none;fill-rule:evenodd;fill:rgb(100%,100%,100%);fill-opacity:1;" d="M 277.097656 110.527344 L 277.097656 68.277344 L 258.609375 85.710938 L 258.609375 114.707031 C 258.609375 122.804688 243.933594 122.648438 243.933594 113.472656 L 243.933594 104.804688 L 227.84375 117.410156 C 231.511719 128.445313 239.40625 135.949219 254.523438 134.882813 C 268.367188 133.90625 277.097656 123.578125 277.097656 110.527344 "/>
<path style=" stroke:none;fill-rule:evenodd;fill:rgb(100%,100%,100%);fill-opacity:1;" d="M 476.707031 49.691406 C 478.613281 49.691406 480.46875 50.179688 482.285156 51.15625 C 484.09375 52.136719 485.507813 53.53125 486.523438 55.351563 C 487.53125 57.167969 488.039063 59.066406 488.039063 61.042969 C 488.039063 62.996094 487.542969 64.875 486.542969 66.675781 C 485.546875 68.480469 484.144531 69.882813 482.347656 70.878906 C 480.550781 71.878906 478.671875 72.375 476.707031 72.375 C 474.742188 72.375 472.859375 71.878906 471.0625 70.878906 C 469.265625 69.878906 467.863281 68.480469 466.859375 66.675781 C 465.859375 64.875 465.359375 62.996094 465.359375 61.042969 C 465.359375 59.066406 465.867188 57.167969 466.882813 55.351563 C 467.898438 53.53125 469.3125 52.136719 471.132813 51.15625 C 472.945313 50.179688 474.800781 49.695313 476.707031 49.691406 Z M 476.707031 51.570313 C 475.109375 51.570313 473.558594 51.980469 472.054688 52.796875 C 470.542969 53.613281 469.367188 54.78125 468.515625 56.296875 C 467.664063 57.816406 467.234375 59.394531 467.234375 61.042969 C 467.234375 62.675781 467.65625 64.238281 468.496094 65.738281 C 469.328125 67.234375 470.5 68.40625 472.003906 69.242188 C 473.503906 70.078125 475.070313 70.496094 476.707031 70.496094 C 478.339844 70.496094 479.90625 70.078125 481.410156 69.242188 C 482.914063 68.40625 484.078125 67.234375 484.910156 65.738281 C 485.742188 64.238281 486.160156 62.675781 486.160156 61.042969 C 486.160156 59.394531 485.734375 57.816406 484.890625 56.296875 C 484.046875 54.78125 482.867188 53.613281 481.351563 52.796875 C 479.835938 51.980469 478.285156 51.570313 476.707031 51.570313 Z M 471.730469 67.304688 L 471.730469 55.105469 L 475.921875 55.105469 C 477.359375 55.105469 478.394531 55.214844 479.035156 55.441406 C 479.675781 55.667969 480.183594 56.058594 480.570313 56.621094 C 480.949219 57.183594 481.136719 57.78125 481.136719 58.410156 C 481.140625 59.304688 480.820313 60.078125 480.183594 60.742188 C 479.550781 61.402344 478.703125 61.769531 477.652344 61.851563 C 478.082031 62.03125 478.433594 62.25 478.6875 62.5 C 479.179688 62.980469 479.78125 63.785156 480.492188 64.921875 L 481.980469 67.304688 L 479.574219 67.304688 L 478.492188 65.382813 C 477.640625 63.875 476.957031 62.925781 476.433594 62.546875 C 476.078125 62.261719 475.550781 62.125 474.855469 62.125 L 473.699219 62.125 L 473.699219 67.304688 Z M 473.699219 60.441406 L 476.089844 60.441406 C 477.230469 60.441406 478.007813 60.265625 478.425781 59.929688 C 478.84375 59.59375 479.050781 59.140625 479.050781 58.574219 C 479.050781 58.214844 478.949219 57.894531 478.75 57.605469 C 478.550781 57.320313 478.269531 57.109375 477.917969 56.96875 C 477.5625 56.824219 476.902344 56.757813 475.9375 56.757813 L 473.699219 56.757813 L 473.699219 60.441406 "/>
</g>
</svg>
